<mxfile host="app.diagrams.net" modified="2022-10-06T09:56:24.619Z" agent="5.0 (Windows NT 10.0; Win64; x64) AppleWebKit/537.36 (KHTML, like Gecko) Chrome/105.0.0.0 Safari/537.36" etag="NZKIXziblxzJmHXL5xad" version="20.4.0" type="github">
  <diagram id="C5RBs43oDa-KdzZeNtuy" name="Page-1">
    <mxGraphModel dx="982" dy="460" grid="1" gridSize="10" guides="1" tooltips="1" connect="1" arrows="0" fold="1" page="1" pageScale="1" pageWidth="827" pageHeight="1169" math="0" shadow="0">
      <root>
        <mxCell id="WIyWlLk6GJQsqaUBKTNV-0" />
        <mxCell id="WIyWlLk6GJQsqaUBKTNV-1" parent="WIyWlLk6GJQsqaUBKTNV-0" />
        <mxCell id="_sFUv83V-Z2-gQJYG4w2-6" style="edgeStyle=orthogonalEdgeStyle;rounded=0;orthogonalLoop=1;jettySize=auto;html=1;exitX=0.5;exitY=1;exitDx=0;exitDy=0;entryX=0.5;entryY=0;entryDx=0;entryDy=0;" edge="1" parent="WIyWlLk6GJQsqaUBKTNV-1" source="_sFUv83V-Z2-gQJYG4w2-0" target="_sFUv83V-Z2-gQJYG4w2-3">
          <mxGeometry relative="1" as="geometry" />
        </mxCell>
        <mxCell id="_sFUv83V-Z2-gQJYG4w2-0" value="num1 = read.nextDouble" style="rounded=0;whiteSpace=wrap;html=1;fillColor=#f8cecc;strokeColor=#b85450;" vertex="1" parent="WIyWlLk6GJQsqaUBKTNV-1">
          <mxGeometry width="120" height="60" as="geometry" />
        </mxCell>
        <mxCell id="_sFUv83V-Z2-gQJYG4w2-4" style="edgeStyle=orthogonalEdgeStyle;rounded=0;orthogonalLoop=1;jettySize=auto;html=1;exitX=0.5;exitY=1;exitDx=0;exitDy=0;entryX=0.5;entryY=0;entryDx=0;entryDy=0;" edge="1" parent="WIyWlLk6GJQsqaUBKTNV-1" source="_sFUv83V-Z2-gQJYG4w2-1" target="_sFUv83V-Z2-gQJYG4w2-3">
          <mxGeometry relative="1" as="geometry" />
        </mxCell>
        <mxCell id="_sFUv83V-Z2-gQJYG4w2-1" value="num2 = read.nextDouble" style="rounded=0;whiteSpace=wrap;html=1;fillColor=#f8cecc;strokeColor=#b85450;" vertex="1" parent="WIyWlLk6GJQsqaUBKTNV-1">
          <mxGeometry x="130" width="120" height="60" as="geometry" />
        </mxCell>
        <mxCell id="_sFUv83V-Z2-gQJYG4w2-5" style="edgeStyle=orthogonalEdgeStyle;rounded=0;orthogonalLoop=1;jettySize=auto;html=1;exitX=0.5;exitY=1;exitDx=0;exitDy=0;" edge="1" parent="WIyWlLk6GJQsqaUBKTNV-1" source="_sFUv83V-Z2-gQJYG4w2-2" target="_sFUv83V-Z2-gQJYG4w2-3">
          <mxGeometry relative="1" as="geometry" />
        </mxCell>
        <mxCell id="_sFUv83V-Z2-gQJYG4w2-2" value="num3 = read.nextDouble" style="rounded=0;whiteSpace=wrap;html=1;fillColor=#f8cecc;strokeColor=#b85450;" vertex="1" parent="WIyWlLk6GJQsqaUBKTNV-1">
          <mxGeometry x="260" width="120" height="60" as="geometry" />
        </mxCell>
        <mxCell id="_sFUv83V-Z2-gQJYG4w2-8" style="edgeStyle=orthogonalEdgeStyle;rounded=0;orthogonalLoop=1;jettySize=auto;html=1;exitX=0.5;exitY=1;exitDx=0;exitDy=0;entryX=0.5;entryY=0;entryDx=0;entryDy=0;" edge="1" parent="WIyWlLk6GJQsqaUBKTNV-1" source="_sFUv83V-Z2-gQJYG4w2-3" target="_sFUv83V-Z2-gQJYG4w2-7">
          <mxGeometry relative="1" as="geometry" />
        </mxCell>
        <mxCell id="_sFUv83V-Z2-gQJYG4w2-10" style="edgeStyle=orthogonalEdgeStyle;rounded=0;orthogonalLoop=1;jettySize=auto;html=1;exitX=0.5;exitY=1;exitDx=0;exitDy=0;entryX=0.5;entryY=0;entryDx=0;entryDy=0;" edge="1" parent="WIyWlLk6GJQsqaUBKTNV-1" source="_sFUv83V-Z2-gQJYG4w2-3" target="_sFUv83V-Z2-gQJYG4w2-9">
          <mxGeometry relative="1" as="geometry" />
        </mxCell>
        <mxCell id="_sFUv83V-Z2-gQJYG4w2-3" value="if num1 = num2 + num3" style="rhombus;whiteSpace=wrap;html=1;fillColor=#e1d5e7;strokeColor=#9673a6;" vertex="1" parent="WIyWlLk6GJQsqaUBKTNV-1">
          <mxGeometry x="130" y="100" width="120" height="100" as="geometry" />
        </mxCell>
        <mxCell id="_sFUv83V-Z2-gQJYG4w2-7" value="out (num1 es la suma de num2 + num3)" style="rounded=1;whiteSpace=wrap;html=1;fillColor=#d5e8d4;strokeColor=#82b366;" vertex="1" parent="WIyWlLk6GJQsqaUBKTNV-1">
          <mxGeometry x="20" y="240" width="120" height="60" as="geometry" />
        </mxCell>
        <mxCell id="_sFUv83V-Z2-gQJYG4w2-12" style="edgeStyle=orthogonalEdgeStyle;rounded=0;orthogonalLoop=1;jettySize=auto;html=1;exitX=0.5;exitY=1;exitDx=0;exitDy=0;entryX=0.5;entryY=0;entryDx=0;entryDy=0;" edge="1" parent="WIyWlLk6GJQsqaUBKTNV-1" source="_sFUv83V-Z2-gQJYG4w2-9" target="_sFUv83V-Z2-gQJYG4w2-11">
          <mxGeometry relative="1" as="geometry" />
        </mxCell>
        <mxCell id="_sFUv83V-Z2-gQJYG4w2-14" style="edgeStyle=orthogonalEdgeStyle;rounded=0;orthogonalLoop=1;jettySize=auto;html=1;exitX=0.5;exitY=1;exitDx=0;exitDy=0;entryX=0.5;entryY=0;entryDx=0;entryDy=0;" edge="1" parent="WIyWlLk6GJQsqaUBKTNV-1" source="_sFUv83V-Z2-gQJYG4w2-9" target="_sFUv83V-Z2-gQJYG4w2-13">
          <mxGeometry relative="1" as="geometry" />
        </mxCell>
        <mxCell id="_sFUv83V-Z2-gQJYG4w2-9" value="if num2 = num1 + num3" style="rhombus;whiteSpace=wrap;html=1;fillColor=#e1d5e7;strokeColor=#9673a6;" vertex="1" parent="WIyWlLk6GJQsqaUBKTNV-1">
          <mxGeometry x="190" y="240" width="120" height="100" as="geometry" />
        </mxCell>
        <mxCell id="_sFUv83V-Z2-gQJYG4w2-11" value="out (num2 es la suma de num1 + num3)" style="rounded=1;whiteSpace=wrap;html=1;fillColor=#d5e8d4;strokeColor=#82b366;" vertex="1" parent="WIyWlLk6GJQsqaUBKTNV-1">
          <mxGeometry x="110" y="380" width="120" height="60" as="geometry" />
        </mxCell>
        <mxCell id="_sFUv83V-Z2-gQJYG4w2-16" style="edgeStyle=orthogonalEdgeStyle;rounded=0;orthogonalLoop=1;jettySize=auto;html=1;exitX=0.5;exitY=1;exitDx=0;exitDy=0;entryX=0.5;entryY=0;entryDx=0;entryDy=0;" edge="1" parent="WIyWlLk6GJQsqaUBKTNV-1" source="_sFUv83V-Z2-gQJYG4w2-13" target="_sFUv83V-Z2-gQJYG4w2-15">
          <mxGeometry relative="1" as="geometry" />
        </mxCell>
        <mxCell id="_sFUv83V-Z2-gQJYG4w2-19" style="edgeStyle=orthogonalEdgeStyle;rounded=0;orthogonalLoop=1;jettySize=auto;html=1;exitX=0.5;exitY=1;exitDx=0;exitDy=0;entryX=0.5;entryY=0;entryDx=0;entryDy=0;" edge="1" parent="WIyWlLk6GJQsqaUBKTNV-1" source="_sFUv83V-Z2-gQJYG4w2-13" target="_sFUv83V-Z2-gQJYG4w2-18">
          <mxGeometry relative="1" as="geometry" />
        </mxCell>
        <mxCell id="_sFUv83V-Z2-gQJYG4w2-13" value="if num3 = num1 + num2" style="rhombus;whiteSpace=wrap;html=1;fillColor=#e1d5e7;strokeColor=#9673a6;" vertex="1" parent="WIyWlLk6GJQsqaUBKTNV-1">
          <mxGeometry x="240" y="380" width="120" height="100" as="geometry" />
        </mxCell>
        <mxCell id="_sFUv83V-Z2-gQJYG4w2-15" value="out (num3 es la suma de num1 + num2)" style="rounded=1;whiteSpace=wrap;html=1;fillColor=#d5e8d4;strokeColor=#82b366;" vertex="1" parent="WIyWlLk6GJQsqaUBKTNV-1">
          <mxGeometry x="170" y="525" width="120" height="60" as="geometry" />
        </mxCell>
        <mxCell id="_sFUv83V-Z2-gQJYG4w2-18" value="out (Ninguno de los nÃºmeros es la suma de los otros dos)" style="rounded=1;whiteSpace=wrap;html=1;fillColor=#d5e8d4;strokeColor=#82b366;" vertex="1" parent="WIyWlLk6GJQsqaUBKTNV-1">
          <mxGeometry x="310" y="525" width="120" height="60" as="geometry" />
        </mxCell>
      </root>
    </mxGraphModel>
  </diagram>
</mxfile>
